# xmcd
#
# Track frame offsets: 
#        150
#        10900
#        24655
#        34655
#        46330
#        56468
#        68340
#        77933
#        89305
#        98353
#        105208
#        116273
#        125405
#        139968
#        152655
#        165218
#        176865
#        186508
#        198838
#
# Disc length: 2774 seconds
#
# Revision: 1
# Processed by: cddbd v1.5.2PL0 Copyright (c) Steve Scherf et al.
# Submitted via: ExactAudioCopy v0.99pb5
#
DISCID=e50ad413
DTITLE=Willie Nelson - 54 Songs: The Songwriter Sessions [CD3]
DYEAR=2006
DGENRE=Country
TTITLE0=Blame It On The Times
TTITLE1=No Tomorrow In Sight
TTITLE2=A New Way To Cry
TTITLE3=I'll Stay Around
TTITLE4=Broken Promises
TTITLE5=Happiness Lives Next Door
TTITLE6=Let's Pretend
TTITLE7=I'm Going To Lose A Lot Of Tear Drops
TTITLE8=Waiting Time
TTITLE9=Both Ends Of The Candle
TTITLE10=Go Away
TTITLE11=Right From Wrong
TTITLE12=What Can You Do To Me Now?
TTITLE13=She's Not For You
TTITLE14=The Storm Has Just Begun
TTITLE15=What A Way To Live
TTITLE16=Ashamed
TTITLE17=Shelter Of My Arms
TTITLE18=One Step Beyond
EXTD=
EXTT0=
EXTT1=
EXTT2=
EXTT3=
EXTT4=
EXTT5=
EXTT6=
EXTT7=
EXTT8=
EXTT9=
EXTT10=
EXTT11=
EXTT12=
EXTT13=
EXTT14=
EXTT15=
EXTT16=
EXTT17=
EXTT18=
PLAYORDER=
